<svg width="39" height="39" viewBox="0 0 39 39" fill="none" xmlns="http://www.w3.org/2000/svg">
<rect x="0.5" y="0.5" width="38" height="38" rx="19" fill="white" stroke="#E6E9F2"/>
<path fill-rule="evenodd" clip-rule="evenodd" d="M23.0044 25.1074C22.9859 25.3064 22.9083 25.4953 22.7815 25.6497C22.6547 25.8041 22.4846 25.9169 22.2931 25.9738C22.1015 26.0306 21.8974 26.0287 21.7069 25.9684C21.5164 25.9081 21.3483 25.7921 21.2243 25.6354C20.1343 24.7694 18.4344 23.5214 18.4344 23.5214C18.4344 23.5214 17.2044 25.6885 16.9844 25.9105C16.9117 25.9715 16.8271 26.0168 16.7359 26.0433C16.6448 26.0698 16.5491 26.077 16.4551 26.0645C16.361 26.052 16.2705 26.02 16.1894 25.9706C16.1084 25.9212 16.0386 25.8554 15.9844 25.7775C15.9731 25.7433 15.9598 25.7099 15.9444 25.6774L16.6344 22.2255L21.5544 17.3925L14.8443 21.2214C14.8443 21.2214 11.8144 20.3154 11.3644 20.1384C11.2483 20.075 11.1525 19.98 11.0882 19.8644C11.0239 19.7489 10.9938 19.6174 11.0011 19.4854C11.0084 19.3533 11.0529 19.226 11.1296 19.1182C11.2063 19.0105 11.312 18.9266 11.4344 18.8765C12.0744 18.5505 23.3644 14.2384 23.7444 14.1274C24.1244 14.0164 25.1244 13.7274 25.0144 14.7004C24.9044 15.6734 23.1144 24.5724 23.0044 25.1074Z" fill="#97A5B5"/>
</svg>
