<svg width="39" height="39" viewBox="0 0 39 39" fill="none" xmlns="http://www.w3.org/2000/svg">
<rect x="0.5" y="0.5" width="38" height="38" rx="19" fill="white" stroke="#E6E9F2"/>
<path fill-rule="evenodd" clip-rule="evenodd" d="M19.2628 18.419C19.2628 18.419 19.4998 15.071 21.8338 15.042C23.7338 15.017 24.0978 15.88 24.0978 15.88C24.6714 15.7048 25.2018 15.4111 25.6548 15.018C25.6139 15.577 25.39 16.107 25.0178 16.526C25.3792 16.5236 25.7288 16.3968 26.0078 16.167C25.9346 16.4369 25.8039 16.6878 25.6248 16.9025C25.4456 17.1172 25.2222 17.2907 24.9698 17.411C25.0889 19.5043 24.5276 21.58 23.3698 23.328C21.6698 25.797 18.5778 25.981 16.8818 26.002C15.5245 25.9217 14.2027 25.5365 13.0148 24.875C13.0148 24.875 15.5878 24.907 16.7398 24.065C15.8277 23.4414 14.9742 22.7361 14.1898 21.958C14.5005 21.9839 14.8135 21.9523 15.1128 21.865C14.2894 20.994 13.5834 20.019 13.0128 18.965C13.3313 19.0284 13.6574 19.0452 13.9808 19.015C13.9808 19.015 12.4808 16.58 13.1908 15C13.1908 15.004 15.7258 18.206 19.2628 18.419Z" fill="#97A5B5"/>
</svg>
