<svg width="39" height="39" viewBox="0 0 39 39" fill="none" xmlns="http://www.w3.org/2000/svg">
<rect x="0.5" y="0.5" width="38" height="38" rx="19" fill="white" stroke="#E6E9F2"/>
<path fill-rule="evenodd" clip-rule="evenodd" d="M19.99 16.7865V20.0435C19.9865 20.0973 19.9958 20.1511 20.0172 20.2006C20.0385 20.2501 20.0714 20.2939 20.113 20.3281C20.1547 20.3624 20.2038 20.3863 20.2565 20.3978C20.3091 20.4094 20.3638 20.4082 20.416 20.3945C20.716 20.3735 21.3939 17.5945 21.6949 16.9885C21.8547 16.6468 22.1114 16.3596 22.433 16.1625C22.5343 16.0707 22.6636 16.0158 22.8 16.0065H25.678C25.7557 16.0196 25.8287 16.0522 25.8903 16.1013C25.9519 16.1505 25.9999 16.2144 26.0299 16.2872C26.0599 16.3601 26.0709 16.4394 26.0618 16.5176C26.0527 16.5958 26.0239 16.6705 25.978 16.7345C25.753 17.2345 23.823 20.3445 23.723 20.4705C23.6026 20.6331 23.5215 20.8214 23.486 21.0205C23.5253 21.2559 23.6339 21.4742 23.798 21.6475C23.998 21.8735 25.614 23.6475 25.765 23.8025C25.9073 23.9659 26.0024 24.1651 26.04 24.3785C26.0039 24.5605 25.9029 24.7231 25.7556 24.8359C25.6084 24.9487 25.4251 25.004 25.24 24.9915C24.614 24.9915 23.0739 24.9915 22.8979 24.9915C22.5462 24.8684 22.2226 24.6763 21.946 24.4265C21.721 24.2265 20.887 23.2745 20.762 23.1495C20.7197 23.0986 20.6656 23.0588 20.6044 23.0335C20.5433 23.0083 20.4768 22.9983 20.4109 23.0045C20.261 23.0045 19.976 23.0195 19.989 23.5895C20.0247 23.9844 19.9418 24.3809 19.751 24.7285C19.6533 24.8221 19.5376 24.8948 19.4109 24.9421C19.2842 24.9894 19.1491 25.0103 19.014 25.0035C17.9911 25.0655 16.9739 24.8117 16.1 24.2765C14.526 23.2995 12.734 20.6885 11.9 19.0225C11.4025 18.1953 11.0951 17.268 11 16.3075C11.05 16.1315 11.05 16.0075 11.226 16.0075C11.402 16.0075 13.615 16.0075 13.826 16.0075C13.9723 16.0796 14.0943 16.1929 14.177 16.3335C14.252 16.4335 14.824 18.1455 14.999 18.4465C15.174 18.7475 16.0369 20.3965 16.5049 20.3965C16.6603 20.366 16.7974 20.2753 16.8862 20.1442C16.975 20.0131 17.0083 19.8521 16.9789 19.6965C16.9789 19.2965 16.9789 17.7175 16.9789 17.5165C16.7887 17.0731 16.44 16.7165 16.001 16.5165C16.1103 16.3713 16.2498 16.2514 16.4098 16.1651C16.5698 16.0788 16.7466 16.0281 16.928 16.0165C17.528 15.9915 19.033 15.9915 19.358 16.0405C19.5324 16.0745 19.6901 16.167 19.8049 16.3026C19.9198 16.4382 19.9851 16.6089 19.99 16.7865Z" fill="#97A5B5"/>
</svg>
