<svg width="39" height="39" viewBox="0 0 39 39" fill="none" xmlns="http://www.w3.org/2000/svg">
<rect width="39" height="39" rx="19.5" fill="white" fill-opacity="0.2"/>
<path opacity="0.5" fill-rule="evenodd" clip-rule="evenodd" d="M16 12H23C24.0609 12 25.0783 12.4214 25.8284 13.1716C26.5786 13.9217 27 14.9391 27 16V23C27 24.0609 26.5786 25.0783 25.8284 25.8284C25.0783 26.5786 24.0609 27 23 27H16C14.9391 27 13.9217 26.5786 13.1716 25.8284C12.4214 25.0783 12 24.0609 12 23V16C12 14.9391 12.4214 13.9217 13.1716 13.1716C13.9217 12.4214 14.9391 12 16 12ZM16 14H23C23.5304 14 24.0391 14.2107 24.4142 14.5858C24.7893 14.9609 25 15.4696 25 16V23C25 23.5304 24.7893 24.0391 24.4142 24.4142C24.0391 24.7893 23.5304 25 23 25H16C15.4696 25 14.9609 24.7893 14.5858 24.4142C14.2107 24.0391 14 23.5304 14 23V16C14 15.4696 14.2107 14.9609 14.5858 14.5858C14.9609 14.2107 15.4696 14 16 14ZM19.5 16C20.1922 16 20.8689 16.2053 21.4445 16.5898C22.0201 16.9744 22.4687 17.521 22.7336 18.1606C22.9985 18.8001 23.0678 19.5039 22.9327 20.1828C22.7977 20.8617 22.4643 21.4854 21.9749 21.9749C21.4854 22.4643 20.8617 22.7977 20.1828 22.9327C19.5039 23.0678 18.8001 22.9985 18.1606 22.7336C17.521 22.4687 16.9744 22.0201 16.5898 21.4445C16.2053 20.8689 16 20.1922 16 19.5C16 18.5717 16.3688 17.6815 17.0251 17.0251C17.6815 16.3688 18.5717 16 19.5 16ZM19.5 18C19.7967 18 20.0867 18.088 20.3334 18.2528C20.58 18.4176 20.7723 18.6519 20.8858 18.926C20.9993 19.2001 21.0291 19.5017 20.9712 19.7927C20.9133 20.0836 20.7704 20.3509 20.5607 20.5607C20.3509 20.7704 20.0836 20.9133 19.7927 20.9712C19.5017 21.0291 19.2001 20.9993 18.926 20.8858C18.6519 20.7723 18.4176 20.58 18.2528 20.3334C18.088 20.0867 18 19.7967 18 19.5C18 19.1022 18.158 18.7206 18.4393 18.4393C18.7206 18.158 19.1022 18 19.5 18Z" fill="white"/>
</svg>
