<svg width="39" height="39" viewBox="0 0 39 39" fill="none" xmlns="http://www.w3.org/2000/svg">
<rect width="39" height="39" rx="19.5" fill="white" fill-opacity="0.2"/>
<path opacity="0.5" fill-rule="evenodd" clip-rule="evenodd" d="M23.0031 26H16.0031C14.8985 25.954 13.8573 25.4719 13.1075 24.6595C12.3577 23.8472 11.9606 22.7707 12.0031 21.666V17.333C11.9611 16.2286 12.3585 15.1524 13.1082 14.3403C13.8579 13.5282 14.8988 13.0463 16.0031 13H23.0031C24.1075 13.0463 25.1486 13.5284 25.8984 14.3407C26.6481 15.153 27.0453 16.2294 27.0031 17.334V21.667C27.0453 22.7715 26.648 23.8477 25.8983 24.6599C25.1485 25.4721 24.1075 25.954 23.0031 26ZM25.0031 17.255C25.0337 16.6925 24.8406 16.1408 24.4659 15.7202C24.0912 15.2996 23.5653 15.0443 23.0031 15.01H16.0031C15.4408 15.0443 14.915 15.2996 14.5403 15.7202C14.1656 16.1408 13.9725 16.6925 14.0031 17.255V21.744C13.9725 22.3065 14.1656 22.8582 14.5403 23.2788C14.915 23.6994 15.4408 23.9547 16.0031 23.989H23.0031C23.5653 23.9547 24.0912 23.6994 24.4659 23.2788C24.8406 22.8582 25.0337 22.3065 25.0031 21.744V17.255ZM18.0031 16.987L22.0031 19.5L18.0031 22.011V16.987Z" fill="white"/>
</svg>
