<svg width="39" height="39" viewBox="0 0 39 39" fill="none" xmlns="http://www.w3.org/2000/svg">
<rect width="39" height="39" rx="19.5" fill="#2CA5E0"/>
<path fill-rule="evenodd" clip-rule="evenodd" d="M19.2628 17.419C19.2628 17.419 19.4998 14.071 21.8338 14.042C23.7338 14.017 24.0978 14.88 24.0978 14.88C24.6714 14.7048 25.2018 14.4111 25.6548 14.018C25.6139 14.577 25.39 15.107 25.0178 15.526C25.3792 15.5236 25.7288 15.3968 26.0078 15.167C25.9346 15.4369 25.8039 15.6878 25.6248 15.9025C25.4456 16.1172 25.2222 16.2907 24.9698 16.411C25.0889 18.5043 24.5276 20.58 23.3698 22.328C21.6698 24.797 18.5778 24.981 16.8818 25.002C15.5245 24.9217 14.2027 24.5365 13.0148 23.875C13.0148 23.875 15.5878 23.907 16.7398 23.065C15.8277 22.4414 14.9742 21.7361 14.1898 20.958C14.5005 20.9839 14.8135 20.9523 15.1128 20.865C14.2894 19.994 13.5834 19.019 13.0128 17.965C13.3313 18.0284 13.6574 18.0452 13.9808 18.015C13.9808 18.015 12.4808 15.58 13.1908 14C13.1908 14.004 15.7258 17.206 19.2628 17.419Z" fill="white"/>
</svg>
