<svg width="39" height="39" viewBox="0 0 39 39" fill="none" xmlns="http://www.w3.org/2000/svg">
<rect width="39" height="39" rx="19.5" fill="white" fill-opacity="0.2"/>
<path opacity="0.5" fill-rule="evenodd" clip-rule="evenodd" d="M24.004 27H21.0161V21.986H23.39L23.7 19.979H21.0161C21.0161 19.979 21.0161 17.694 21.0161 17.47C21.0249 17.3925 21.0497 17.3177 21.089 17.2504C21.1283 17.183 21.1812 17.1246 21.2443 17.0788C21.3074 17.033 21.3793 17.0008 21.4556 16.9843C21.5318 16.9678 21.6106 16.9673 21.687 16.983C22.126 16.983 22.992 16.983 22.992 16.983L23.304 15C22.5047 14.9456 21.7025 14.9516 20.9041 15.018C20.3472 15.0921 19.8382 15.3718 19.4771 15.802C19.1362 16.2633 18.9674 16.8293 19 17.402V19.994L17 19.979V21.986L19 21.993V27H15C14.2044 27 13.4413 26.6839 12.8787 26.1213C12.3161 25.5587 12 24.7956 12 24V15C12 14.2044 12.3161 13.4413 12.8787 12.8787C13.4413 12.3161 14.2044 12 15 12H24C24.7956 12 25.5587 12.3161 26.1213 12.8787C26.6839 13.4413 27 14.2044 27 15V24C27 24.795 26.6845 25.5574 26.1227 26.1199C25.561 26.6824 24.799 26.9989 24.004 27Z" fill="white"/>
</svg>
