<svg width="39" height="39" viewBox="0 0 39 39" fill="none" xmlns="http://www.w3.org/2000/svg">
<rect width="39" height="39" rx="19.5" fill="white" fill-opacity="0.2"/>
<path opacity="0.5" fill-rule="evenodd" clip-rule="evenodd" d="M20.99 15.7805V19.0375C20.9864 19.0913 20.9957 19.1452 21.0171 19.1946C21.0385 19.2441 21.0714 19.2877 21.113 19.322C21.1547 19.3562 21.2039 19.38 21.2566 19.3914C21.3093 19.4028 21.3639 19.4015 21.416 19.3875C21.716 19.3675 22.3939 16.5875 22.6949 15.9875C22.8549 15.6457 23.1115 15.3582 23.433 15.1605C23.5345 15.0692 23.6637 15.0145 23.8 15.0055H26.678C26.7557 15.0186 26.8287 15.0512 26.8903 15.1003C26.9519 15.1495 26.9999 15.2134 27.0299 15.2863C27.0599 15.3591 27.0709 15.4384 27.0618 15.5166C27.0527 15.5948 27.0239 15.6695 26.978 15.7335C26.753 16.2335 24.823 19.3435 24.723 19.4695C24.6026 19.6321 24.5215 19.8203 24.486 20.0195C24.5255 20.2545 24.6341 20.4724 24.798 20.6455C24.998 20.8725 26.614 22.6515 26.765 22.8005C26.9071 22.9644 27.0022 23.1638 27.04 23.3775C27.0039 23.5595 26.9029 23.7221 26.7556 23.8349C26.6084 23.9477 26.4251 24.003 26.24 23.9905C25.614 23.9905 24.0739 23.9905 23.8979 23.9905C23.5462 23.8674 23.2226 23.6753 22.946 23.4255C22.721 23.2255 21.887 22.2735 21.762 22.1485C21.7201 22.0971 21.6661 22.057 21.6048 22.0317C21.5435 22.0064 21.4769 21.9967 21.4109 22.0035C21.261 22.0035 20.976 22.0185 20.989 22.5875C21.0245 22.9827 20.9416 23.3795 20.751 23.7275C20.6533 23.8211 20.5376 23.8938 20.4109 23.9411C20.2842 23.9884 20.1491 24.0093 20.014 24.0025C18.9911 24.0645 17.9739 23.8107 17.1 23.2755C15.526 22.2975 13.734 19.6865 12.9 18.0215C12.4025 17.1943 12.0951 16.267 12 15.3065C12.05 15.1305 12.05 15.0065 12.226 15.0065C12.402 15.0065 14.615 15.0065 14.826 15.0065C14.9721 15.0793 15.094 15.1929 15.177 15.3335C15.252 15.4335 15.824 17.1455 15.999 17.4465C16.174 17.7475 17.0369 19.3965 17.5049 19.3965C17.6603 19.366 17.7974 19.2753 17.8862 19.1442C17.975 19.013 18.0083 18.8521 17.9789 18.6965C17.9789 18.2965 17.9789 16.7175 17.9789 16.5165C17.789 16.0729 17.4402 15.7163 17.001 15.5165C17.1103 15.3712 17.2498 15.2514 17.4098 15.1651C17.5698 15.0788 17.7466 15.0281 17.928 15.0165C18.528 14.9915 20.033 14.9915 20.358 15.0405C20.5314 15.0743 20.6883 15.1658 20.8031 15.3002C20.9179 15.4346 20.9838 15.6039 20.99 15.7805Z" fill="white"/>
</svg>
