<svg width="40" height="40" viewBox="0 0 40 40" fill="none" xmlns="http://www.w3.org/2000/svg">
<path fill-rule="evenodd" clip-rule="evenodd" d="M11.5 24C15.0899 24 18 21.0899 18 17.5C18 13.9101 15.0899 11 11.5 11C7.91015 11 5 13.9101 5 17.5C5 21.0899 7.91015 24 11.5 24ZM8 27C3.58172 27 0 30.5817 0 35V37C0 38.6569 1.34315 40 3 40H21C22.6569 40 24 38.6569 24 37V35C24 30.5817 20.4183 27 16 27H8Z" fill="#FF7188"/>
<path d="M14 38V30.2924C14 23.8333 10.8807 17.7719 5.62476 14.0177L2.09381 11.4956C0.779828 10.557 0 9.04167 0 7.42691V2C0 0.895431 0.895431 0 2 0H38C39.1046 0 40 0.89543 40 2V7.53799C40 9.09034 39.279 10.5546 38.0486 11.5011L34.8058 13.9956C29.8841 17.7815 27 23.6386 27 29.848V38C27 39.1046 26.1046 40 25 40H16C14.8954 40 14 39.1046 14 38Z" fill="#3AE7BC"/>
<path fill-rule="evenodd" clip-rule="evenodd" d="M14 30.2924V38C14 39.1046 14.8954 40 16 40H20C21.6569 40 23 38.6569 23 37V35C23 30.5817 19.4183 27 15 27H13.7274C13.9075 28.0792 14 29.1799 14 30.2924ZM12.9314 23.8419C15.8326 23.1899 18 20.5981 18 17.5C18 13.9101 15.0899 11 11.5 11C9.10988 11 7.02106 12.29 5.89185 14.2118C9.20226 16.6597 11.6341 20.0356 12.9314 23.8419Z" fill="#2E57DB"/>
</svg>
