<svg width="40" height="40" viewBox="0 0 40 40" fill="none" xmlns="http://www.w3.org/2000/svg">
<g clip-path="url(#clip0)">
<path fill-rule="evenodd" clip-rule="evenodd" d="M9.17157 9.17157C10.7337 7.60948 13.2663 7.60948 14.8284 9.17157L22.8284 17.1716C24.3905 18.7337 24.3905 21.2663 22.8284 22.8284C21.2663 24.3905 18.7337 24.3905 17.1716 22.8284L16 21.6569V36C16 38.2091 14.2091 40 12 40C9.79086 40 8 38.2091 8 36V21.6569L6.82843 22.8284C5.26633 24.3905 2.73367 24.3905 1.17157 22.8284C-0.390524 21.2663 -0.390524 18.7337 1.17157 17.1716L9.17157 9.17157Z" fill="#FF7188"/>
<path fill-rule="evenodd" clip-rule="evenodd" d="M40 9C40 13.9706 35.9706 18 31 18C26.0294 18 22 13.9706 22 9C22 4.02944 26.0294 0 31 0C35.9706 0 40 4.02944 40 9ZM38.9431 40C39.5134 40 40 39.5704 40 39C40 34.0294 35.9706 30 31 30C26.0294 30 22 34.0294 22 39C22 39.5704 22.4866 40 23.0569 40H38.9431ZM17 33C21.9706 33 26 28.9706 26 24C26 19.0294 21.9706 15 17 15C12.0294 15 8 19.0294 8 24C8 28.9706 12.0294 33 17 33Z" fill="#3AE7BC"/>
<path fill-rule="evenodd" clip-rule="evenodd" d="M8 24C8 28.6326 11.5 32.4476 16 32.9451V21.6569L17.1716 22.8284C18.7337 24.3905 21.2663 24.3905 22.8284 22.8284C24.3905 21.2663 24.3905 18.7337 22.8284 17.1716L22.6548 16.998C21.1095 15.7484 19.1421 15 17 15C12.0294 15 8 19.0294 8 24Z" fill="#2E57DB"/>
</g>
<defs>
<clipPath id="clip0">
<rect width="40" height="40" fill="white"/>
</clipPath>
</defs>
</svg>
