<svg width="40" height="40" viewBox="0 0 40 40" fill="none" xmlns="http://www.w3.org/2000/svg">
<g clip-path="url(#clip0)">
<path fill-rule="evenodd" clip-rule="evenodd" d="M10.369 20C13.4066 20 15.869 17.5376 15.869 14.5C15.869 11.4624 13.4066 9 10.369 9C7.33145 9 4.86902 11.4624 4.86902 14.5C4.86902 17.5376 7.33145 20 10.369 20ZM-0.130981 31C-0.130981 26.5817 3.45074 23 7.86902 23H12.869C17.2873 23 20.869 26.5817 20.869 31V37C20.869 38.6569 19.5259 40 17.869 40H2.86902C1.21216 40 -0.130981 38.6569 -0.130981 37V31Z" fill="#FF7188"/>
<path fill-rule="evenodd" clip-rule="evenodd" d="M25.869 16C30.2873 16 33.869 12.4183 33.869 8C33.869 3.58172 30.2873 0 25.869 0C21.4507 0 17.869 3.58172 17.869 8C17.869 12.4183 21.4507 16 25.869 16ZM10.869 31C10.869 24.3726 16.2416 19 22.869 19H27.869C34.4964 19 39.869 24.3726 39.869 31V37C39.869 38.6569 38.5259 40 36.869 40H13.869C12.2122 40 10.869 38.6569 10.869 37V31Z" fill="#3AE7BC"/>
<path fill-rule="evenodd" clip-rule="evenodd" d="M13.8694 23.062C12.0021 25.1775 10.869 27.9563 10.869 30.9999V39.9999H17.9045C19.545 39.9808 20.869 38.6451 20.869 37.0001V31.0001C20.869 26.9206 17.8155 23.5543 13.8694 23.062Z" fill="#2E57DB"/>
</g>
<defs>
<clipPath id="clip0">
<rect width="39.8691" height="40" fill="white"/>
</clipPath>
</defs>
</svg>
