<svg width="40" height="40" viewBox="0 0 40 40" fill="none" xmlns="http://www.w3.org/2000/svg">
<g clip-path="url(#clip0)">
<path d="M30.2248 31.9365C30.716 29.6132 32.2777 27.7016 34.1138 26.1958C37.4637 23.4488 40 19.4508 40 15C40 6.71573 33.2843 0 25 0C16.7157 0 10 6.71573 10 15C10 19.4508 12.5363 23.4488 15.8862 26.1958C17.7223 27.7016 19.284 29.6132 19.7752 31.9365L20 33L20.3673 38.1425C20.4421 39.1891 21.313 40 22.3622 40H27.2654C28.2607 40 29.1046 39.2681 29.2453 38.2828L30 33L30.2248 31.9365Z" fill="#3AE7BC"/>
<path d="M15.6082 34.1344C15.8534 32.1725 17.1032 30.5199 18.643 29.2795C21.1196 27.2844 23 24.4833 23 21.25C23 15.0368 17.8513 10 11.5 10C5.14873 10 0 15.0368 0 21.25C0 24.4833 1.88044 27.2844 4.35701 29.2795C5.89677 30.5199 7.14656 32.1725 7.3918 34.1344L7.5 35L7.8199 38.199C7.92214 39.2214 8.78247 40 9.80997 40H13.19C14.2175 40 15.0779 39.2214 15.1801 38.199L15.5 35L15.6082 34.1344Z" fill="#FF7188"/>
<path fill-rule="evenodd" clip-rule="evenodd" d="M18.6776 29.2726C18.7904 29.1673 18.9053 29.0643 19.022 28.9638C21.3089 26.9938 23 24.3162 23 21.25C23 15.0368 17.8513 10 11.5 10C11.2809 10 11.0633 10.006 10.8472 10.0178C10.2985 11.5767 10 13.2535 10 15C10 19.4508 12.5363 23.4488 15.8862 26.1958C16.9653 27.0808 17.9497 28.106 18.6776 29.2726Z" fill="#2E57DB"/>
</g>
<defs>
<clipPath id="clip0">
<rect width="40" height="40" fill="white"/>
</clipPath>
</defs>
</svg>
