<svg width="40" height="40" viewBox="0 0 40 40" fill="none" xmlns="http://www.w3.org/2000/svg">
<g clip-path="url(#clip0)">
<path d="M22 13C22 9.68629 19.3137 7 16 7H3C1.34315 7 0 8.34315 0 10V29C0 30.6569 1.34315 32 3 32H18.8197C19.5959 32 20.3615 32.1807 21.0557 32.5279L22 33V13Z" fill="#FF7188"/>
<path d="M12 6C12 2.68629 14.6863 0 18 0H37C38.6569 0 40 1.34315 40 3V35C40 36.6569 38.6569 38 37 38H17.6667C16.5848 38 15.5321 38.3509 14.6667 39L13.6 39.8C12.9408 40.2944 12 39.824 12 39V6Z" fill="#3AE7BC"/>
<path fill-rule="evenodd" clip-rule="evenodd" d="M12 32V7L20 7C23.3137 7 26 9.6863 26 13V32.0046C26 32.7754 25.1647 33.2564 24.498 32.8695L24.1641 32.6757C23.4016 32.2331 22.5357 32 21.6541 32H12Z" fill="#2E57DB"/>
</g>
<defs>
<clipPath id="clip0">
<rect width="40" height="40.0001" fill="white"/>
</clipPath>
</defs>
</svg>
