<svg width="40" height="40" viewBox="0 0 40 40" fill="none" xmlns="http://www.w3.org/2000/svg">
<g clip-path="url(#clip0)">
<path d="M13 18.1476V37C13 38.6569 14.3431 40 16 40H37C38.6569 40 40 38.6569 40 37V2.17129C40 0.343474 37.7503 -0.526588 36.5205 0.825582L28.8298 9.28109C27.7151 10.5066 25.818 10.5967 24.5923 9.48218L23.2192 8.23374C21.9046 7.03842 19.8449 7.24123 18.7886 8.66998L13.9794 15.1752C13.3433 16.0357 13 17.0775 13 18.1476Z" fill="#3AE7BC"/>
<path d="M0 31.1241V37C0 38.6569 1.34315 40 3 40H28C29.6569 40 31 38.6569 31 37V17.1018C31 15.2829 28.7689 14.4083 27.5328 15.7426L19.1456 24.7961C17.9977 26.0352 16.0535 26.0827 14.8464 24.9012L11.2216 21.3532C9.97497 20.133 7.95411 20.2296 6.82961 21.5632L0.942016 28.5456C0.333668 29.2671 0 30.1804 0 31.1241Z" fill="#FF7188"/>
<path fill-rule="evenodd" clip-rule="evenodd" d="M28.084 39.9992C29.702 39.9547 31 38.6291 31 37.0004V17.1022C31 15.2833 28.7689 14.4087 27.5328 15.743L19.1456 24.7965C17.9977 26.0356 16.0535 26.0831 14.8464 24.9016L13 23.0943V36.9992C13 38.6561 14.3431 39.9992 16 39.9992H28.084Z" fill="#2E57DB"/>
</g>
<defs>
<clipPath id="clip0">
<rect width="40" height="40" fill="white"/>
</clipPath>
</defs>
</svg>
