<svg width="39" height="26" viewBox="0 0 39 26" fill="none" xmlns="http://www.w3.org/2000/svg">
    <path fill-rule="evenodd" clip-rule="evenodd" d="M22.8909 8.03143C22.8913 8.03413 22.8913 8.03687 22.8909 8.03957V8.05043C21.2082 10.5762 20.315 13.5037 20.315 16.4925C20.315 19.4814 21.2082 22.4089 22.8909 24.9346L22.9066 24.9591C22.9722 25.0694 23.0044 25.1948 22.9995 25.3214C22.9996 25.4984 22.9269 25.6684 22.7969 25.7951C22.6669 25.9219 22.4899 25.9954 22.3036 26H10.0029C7.34997 26 4.80569 24.9991 2.92978 23.2175C1.05388 21.4359 0 19.0196 0 16.5C0 13.9804 1.05388 11.5641 2.92978 9.78248C4.80569 8.00089 7.34997 7 10.0029 7H22.2922C22.4799 7.0025 22.6591 7.07509 22.7909 7.20208C22.9228 7.32906 22.9967 7.50024 22.9967 7.67857C22.9958 7.80313 22.9593 7.92512 22.8909 8.03143Z" fill="#FF7188"/>
    <path fill-rule="evenodd" clip-rule="evenodd" d="M38.6603 1.2705C35.9951 2.79232 33.7782 5.01455 32.2404 7.7061C30.7025 10.3976 29.8998 13.4602 29.9157 16.5753C29.9108 19.522 30.6288 22.423 32.0045 25.0143C32.0552 25.1112 32.0819 25.2193 32.0824 25.3292C32.0843 25.5009 32.0209 25.6667 31.9055 25.7918C31.7901 25.9169 31.6317 25.9915 31.4635 26H22.3606C19.0478 25.896 15.9049 24.4807 13.5976 22.0541C11.2903 19.6275 10 16.3801 10 13C10 9.61986 11.2903 6.3725 13.5976 3.94588C15.9049 1.51926 19.0478 0.104026 22.3606 0H38.3556C38.4413 0.0010721 38.5259 0.0193448 38.6046 0.053777C38.6834 0.0882091 38.7547 0.138129 38.8146 0.200678C38.8744 0.263227 38.9216 0.337182 38.9534 0.418324C38.9852 0.499466 39.001 0.586204 38.9999 0.673583C39.0012 0.795039 38.9704 0.9146 38.9106 1.01966C38.8508 1.12471 38.7644 1.21138 38.6603 1.2705Z" fill="#3AE7BC"/>
    <path fill-rule="evenodd" clip-rule="evenodd" d="M22.4118 26H23.3036C23.4899 25.9954 23.6669 25.9219 23.7969 25.7951C23.9269 25.6684 23.9996 25.4984 23.9995 25.3214C24.0044 25.1948 23.9722 25.0694 23.9066 24.9591L23.8909 24.9346C22.2082 22.4089 21.315 19.4814 21.315 16.4925C21.315 13.5037 22.2082 10.5762 23.8909 8.05043V8.03957C23.8913 8.03687 23.8913 8.03413 23.8909 8.03143C23.9593 7.92512 23.9958 7.80313 23.9967 7.67857C23.9967 7.50024 23.9228 7.32906 23.7909 7.20208C23.6591 7.07509 23.4799 7.0025 23.2922 7H11.4441C10.5035 8.83729 10 10.8928 10 13C10 16.3801 11.2957 19.6275 13.6125 22.0541C15.9293 24.4807 19.0853 25.896 22.4118 26Z" fill="#2E57DB"/>
</svg> 