<svg width="40" height="40" viewBox="0 0 40 40" fill="none" xmlns="http://www.w3.org/2000/svg">
<path d="M29 20.5C29 28.5081 22.5081 35 14.5 35C6.49187 35 0 28.5081 0 20.5C0 12.4919 6.49187 6 14.5 6C22.5081 6 29 12.4919 29 20.5ZM7.99947 20.5C7.99947 24.0901 10.9099 27.0005 14.5 27.0005C18.0901 27.0005 21.0005 24.0901 21.0005 20.5C21.0005 16.9099 18.0901 13.9995 14.5 13.9995C10.9099 13.9995 7.99947 16.9099 7.99947 20.5Z" fill="#FF7188"/>
<path d="M12 8C12 3.58172 15.5817 0 20 0H38.967C39.9753 0 40.3498 1.3232 39.4911 1.85166L37.9036 2.82855C36.7206 3.55654 36 4.84614 36 6.23519V32C36 36.4183 32.4183 40 28 40H14H11C10.176 40 9.70559 39.0592 10.2 38.4L11.2 37.0667C11.7193 36.3743 12 35.5321 12 34.6667V8Z" fill="#3AE7BC"/>
<path fill-rule="evenodd" clip-rule="evenodd" d="M12.2079 6.18014C12.0719 6.76476 12 7.37398 12 8V14.4658C12.77 14.1465 13.6144 13.9702 14.5 13.9702C18.1063 13.9702 21.0298 16.8937 21.0298 20.5C21.0298 24.1063 18.1063 27.0298 14.5 27.0298C13.6144 27.0298 12.77 26.8535 12 26.5342V34.0775C12 34.3131 11.9792 34.5462 11.9388 34.7745C12.7702 34.9227 13.6261 35 14.5 35C22.5081 35 29 28.5081 29 20.5C29 12.4919 22.5081 6 14.5 6C13.72 6 12.9545 6.06158 12.2079 6.18014Z" fill="#2E57DB"/>
</svg>
