<svg width="40" height="40" viewBox="0 0 40 40" fill="none" xmlns="http://www.w3.org/2000/svg">
<path fill-rule="evenodd" clip-rule="evenodd" d="M22 36C31.9411 36 40 27.9411 40 18C40 8.05886 31.9411 0 22 0C12.0589 0 4 8.05886 4 18C4 27.9411 12.0589 36 22 36ZM22 26C26.4183 26 30 22.4183 30 18C30 13.5817 26.4183 10 22 10C17.5817 10 14 13.5817 14 18C14 22.4183 17.5817 26 22 26Z" fill="#3AE7BC"/>
<path d="M0 22C0 20.3431 1.34315 19 3 19H21C22.6569 19 24 20.3431 24 22V33C24 34.6569 22.6569 36 21 36H12.6406C11.9059 36 11.1967 36.2696 10.6475 36.7578L7.7965 39.292C7.28342 39.7481 6.6208 40 5.93432 40C5.41831 40 5 39.5817 5 39.0657V38C5 36.8954 4.10457 36 3 36C1.34315 36 0 34.6569 0 33V22Z" fill="#FF7188"/>
<path fill-rule="evenodd" clip-rule="evenodd" d="M21.2893 35.9862C22.8104 35.8407 24 34.5593 24 33V25.748C23.3608 25.9125 22.6906 26 22 26C17.9204 26 14.554 22.9463 14.0619 19L4.02731 19C4.53334 28.2412 12.0101 35.626 21.2893 35.9862Z" fill="#2E57DB"/>
</svg>
