<svg width="40" height="40" viewBox="0 0 40 40" fill="none" xmlns="http://www.w3.org/2000/svg">
<path fill-rule="evenodd" clip-rule="evenodd" d="M33.5355 8.46447C35.4882 10.4171 35.4882 13.5829 33.5355 15.5355L16.5355 32.5355C14.5829 34.4882 11.4171 34.4882 9.46447 32.5355L1.46447 24.5355C-0.488155 22.5829 -0.488155 19.4171 1.46447 17.4645C3.41709 15.5118 6.58291 15.5118 8.53553 17.4645L13 21.9289L26.4645 8.46447C28.4171 6.51184 31.5829 6.51184 33.5355 8.46447Z" fill="#FF7188"/>
<path fill-rule="evenodd" clip-rule="evenodd" d="M13 0C11.3431 0 10 1.34315 10 3V15C10 16.6569 11.3431 18 13 18H37C38.6569 18 40 16.6569 40 15V3C40 1.34315 38.6569 0 37 0H13ZM13 22C11.3431 22 10 23.3431 10 25V37C10 38.6569 11.3431 40 13 40H37C38.6569 40 40 38.6569 40 37V25C40 23.3431 38.6569 22 37 22H13Z" fill="#3AE7BC"/>
<path fill-rule="evenodd" clip-rule="evenodd" d="M31.0711 18L33.5355 15.5355C35.4882 13.5829 35.4882 10.4171 33.5355 8.46447C31.5829 6.51184 28.4171 6.51184 26.4645 8.46447L16.9289 18H31.0711ZM27.0711 22L16.5355 32.5355C14.7528 34.3183 11.9587 34.4734 10 33.0008V25C10 23.3431 11.3431 22 13 22H27.0711Z" fill="#2E57DB"/>
</svg>
